HIERARCHY
ROOT root
{
	OFFSET 0.000000 0.000000 0.000000
	CHANNELS 6 Xposition Yposition Zposition Zrotation Yrotation Xrotation
	JOINT lhip
	{
		OFFSET 0.058581 -0.082280 -0.017664
		CHANNELS 3 Zrotation Yrotation Xrotation
		JOINT lknee
		{
			OFFSET 0.043451 -0.386469 0.008037
			CHANNELS 3 Zrotation Yrotation Xrotation
			JOINT lankle
			{
				OFFSET -0.014790 -0.426874 -0.037428
				CHANNELS 3 Zrotation Yrotation Xrotation
				JOINT ltoe
				{
					OFFSET 0.041054 -0.060286 0.122042
					CHANNELS 3 Zrotation Yrotation Xrotation
					End Site
					{
						OFFSET 0.000000 0.000000 0.000000
					}
				}
			}
		}
	}
	JOINT rhip
	{
		OFFSET -0.060310 -0.090513 -0.013543
		CHANNELS 3 Zrotation Yrotation Xrotation
		JOINT rknee
		{
			OFFSET -0.043257 -0.383688 -0.004843
			CHANNELS 3 Zrotation Yrotation Xrotation
			JOINT rankle
			{
				OFFSET 0.019056 -0.420046 -0.034562
				CHANNELS 3 Zrotation Yrotation Xrotation
				JOINT rtoe
				{
					OFFSET -0.034840 -0.062106 0.130323
					CHANNELS 3 Zrotation Yrotation Xrotation
					End Site
					{
						OFFSET 0.000000 0.000000 0.000000
					}
				}
			}
		}
	}
	JOINT lowerback
	{
		OFFSET 0.004439 0.124404 -0.038385
		CHANNELS 3 Zrotation Yrotation Xrotation
		JOINT upperback
		{
			OFFSET 0.004488 0.137956 0.026820
			CHANNELS 3 Zrotation Yrotation Xrotation
			JOINT chest
			{
				OFFSET -0.002265 0.056032 0.002855
				CHANNELS 3 Zrotation Yrotation Xrotation
				JOINT lowerneck
				{
					OFFSET -0.013390 0.211636 -0.033468
					CHANNELS 3 Zrotation Yrotation Xrotation
					JOINT upperneck
					{
						OFFSET 0.010113 0.088937 0.050410
						CHANNELS 3 Zrotation Yrotation Xrotation
						End Site
						{
							OFFSET 0.000000 0.000000 0.000000
						}
					}
				}
				JOINT lclavicle
				{
					OFFSET 0.071702 0.114000 -0.018898
					CHANNELS 3 Zrotation Yrotation Xrotation
					JOINT lshoulder
					{
						OFFSET 0.122921 0.045205 -0.019046
						CHANNELS 3 Zrotation Yrotation Xrotation
						JOINT lelbow
						{
							OFFSET 0.255332 -0.015649 -0.022946
							CHANNELS 3 Zrotation Yrotation Xrotation
							JOINT lwrist
							{
								OFFSET 0.265709 0.012698 -0.007375
								CHANNELS 3 Zrotation Yrotation Xrotation
								End Site
								{
									OFFSET 0.000000 0.000000 0.000000
								}
							}
						}
					}
				}
				JOINT rclavicle
				{
					OFFSET -0.082954 0.112472 -0.023707
					CHANNELS 3 Zrotation Yrotation Xrotation
					JOINT rshoulder
					{
						OFFSET -0.113228 0.046853 -0.008472
						CHANNELS 3 Zrotation Yrotation Xrotation
						JOINT relbow
						{
							OFFSET -0.260127 -0.014369 -0.031269
							CHANNELS 3 Zrotation Yrotation Xrotation
							JOINT rwrist
							{
								OFFSET -0.269108 0.006794 -0.006027
								CHANNELS 3 Zrotation Yrotation Xrotation
								End Site
								{
									OFFSET 0.000000 0.000000 0.000000
								}
							}
						}
					}
				}
			}
		}
	}
}
MOTION
Frames: 7
Frame Time: 0.033333
1.245322 0.715240 0.873527 -92.075453 0.970265 91.683863 3.021496 -8.135981 -28.837713 -7.188380 1.162132 59.648005 7.742807 19.532674 -38.884346 0.000000 -0.000000 0.000000 3.973805 8.257184 -25.889282 -2.725356 -1.905605 55.343254 -2.979714 -21.805032 -39.069758 0.000000 -0.000000 0.000000 -1.738974 3.710802 24.200934 -0.822820 -0.824119 -6.183091 0.586518 -1.137725 2.798612 2.622479 5.314925 -26.114341 4.942213 -5.918642 -4.887868 -24.140407 -14.381771 1.717111 -56.619917 -9.026794 9.334144 3.907863 -12.917138 9.084099 -0.550324 2.030168 2.188594 22.297746 16.087940 2.157981 61.545819 8.134867 17.947186 -8.971915 21.747129 14.468272 -7.005421 -3.637020 6.846760 
1.227231 0.715430 0.887790 -91.515182 0.927682 91.940747 2.035179 -6.790486 -24.602640 -6.941800 -0.658848 54.262035 8.920340 19.695583 -38.198192 0.000000 -0.000000 0.000000 3.935055 6.192696 -22.297500 -1.594209 -1.256277 50.538716 -3.129878 -21.564981 -37.914925 0.000000 -0.000000 0.000000 -2.013651 3.817701 20.446991 -0.541808 -1.325425 -4.146370 0.871770 -1.400255 2.440813 2.363829 4.794571 -26.123484 4.550066 -5.789697 -3.713655 -22.786269 -15.160991 2.159800 -59.623944 -9.364354 9.751650 4.742053 -12.061884 11.232889 -0.170281 3.677351 3.360984 21.382758 16.898525 2.702567 62.852117 7.647432 17.661524 -9.400954 21.356233 15.660873 -5.071064 -5.481312 8.453914 
1.202055 0.715906 0.921010 -90.884432 0.756623 90.774249 1.173932 -5.043505 -16.124990 -7.217324 -3.595529 44.119004 8.564844 18.263159 -33.825633 0.000000 -0.000000 0.000000 3.494862 3.122826 -13.929358 -0.262808 -0.870117 40.197729 -2.526364 -19.326269 -33.270524 0.000000 -0.000000 0.000000 -2.444537 3.969675 16.959677 -0.405440 -2.060243 -2.777778 1.257560 -1.449936 2.022035 2.331749 3.789629 -22.624192 4.730868 -5.165182 -2.364324 -21.584645 -14.659367 2.050373 -62.412821 -9.055968 10.939889 3.976660 -11.601910 15.256798 0.312103 5.635909 4.864718 20.149299 16.201284 2.459904 64.898156 5.834574 17.935713 -8.420840 21.854807 18.008848 -1.849357 -7.172290 9.381233 
1.171991 0.717204 0.966878 -89.584705 0.689761 89.218736 0.808738 -3.117208 -6.266902 -5.826795 -6.231490 31.926673 6.400623 13.408039 -22.141601 0.000000 -0.000000 0.000000 3.395550 -0.760938 -4.145344 -0.853286 -1.223514 28.079971 -1.683085 -14.645899 -19.593361 0.000000 -0.000000 0.000000 -2.644984 3.638704 11.889130 -0.277235 -3.227576 0.693224 1.380962 -1.505951 0.381673 1.611444 1.708943 -15.394423 5.505150 -3.139759 -2.329544 -21.356108 -13.355979 2.869400 -63.241673 -8.728743 10.141095 3.737273 -12.097428 16.963149 -2.304449 6.488353 7.255062 18.609765 14.761076 2.248080 67.413393 3.494834 18.061902 -7.283049 22.817368 20.008489 0.315046 -7.694141 11.666785 
1.147055 0.717980 1.018905 -89.030825 0.684010 88.870069 0.592909 -3.103936 -1.713261 -3.007542 -6.106990 24.003514 2.053366 8.053610 -1.635602 0.000000 -0.000000 0.000000 3.570510 -2.429634 -0.734227 -2.838369 -2.571652 21.947539 0.520230 -10.463935 3.600674 0.000000 -0.000000 0.000000 -2.791666 3.458307 7.849751 -0.016541 -4.159690 2.513151 1.309574 -1.656305 -1.188532 -0.318451 -1.027637 -7.241636 6.837749 -0.015715 -4.655581 -22.068915 -11.062341 3.970484 -62.095872 -9.507474 9.049463 2.832246 -11.997937 12.066481 -7.501975 6.899781 6.592060 18.262077 12.046725 2.535923 68.447169 2.995828 17.786414 -7.783252 23.607470 16.077648 2.587367 -9.182087 12.036181 
1.127866 0.716523 1.068762 -89.321040 -0.030603 88.932034 -0.833797 -4.417783 0.202547 -1.035896 -3.580510 17.261091 -0.760326 7.723559 18.246990 0.000000 -0.000000 0.000000 2.192133 -2.721208 -1.624332 -3.489929 -7.414628 19.710138 2.113246 -10.766017 24.294795 0.000000 -0.000000 0.000000 -3.282453 3.222627 5.577921 -0.120390 -4.255496 4.195766 1.269870 -1.406511 -2.831104 -2.128649 -3.035800 -2.000931 8.055363 2.586216 -7.664040 -22.871135 -10.721227 5.349609 -60.741109 -10.334063 9.232870 3.456763 -11.549399 9.778529 -10.149853 8.682431 7.489176 18.238608 11.008389 3.262113 67.656877 3.605724 17.953061 -8.421272 24.214892 14.894256 7.268581 -10.100338 10.449920 
1.112444 0.715070 1.109460 -88.934745 -0.362065 88.930457 -1.604501 -4.733684 1.092046 0.179089 0.266171 11.126122 -2.573336 8.982997 32.545650 0.000000 -0.000000 0.000000 1.643416 -3.406896 -2.848024 -3.762781 -12.988824 16.076236 3.229658 -11.742059 38.152428 0.000000 -0.000000 0.000000 -3.581010 2.653744 4.743816 -0.179442 -4.413938 6.688389 1.551424 -1.064074 -4.905907 -3.232932 -4.221603 0.019784 9.235328 3.976474 -9.086969 -23.100503 -12.678397 6.845773 -59.551680 -10.768362 9.918413 4.602484 -11.291772 8.457079 -11.298102 8.588847 9.149744 17.759926 12.633709 4.285560 66.487616 4.062454 18.975876 -8.727012 23.849189 16.715664 11.600256 -11.790340 12.022510 
